<mxfile host="app.diagrams.net" modified="2024-03-17T16:49:20.401Z" agent="Mozilla/5.0 (Macintosh; Intel Mac OS X 10.14; rv:109.0) Gecko/20100101 Firefox/115.0" etag="UhkrhxpfSRucGQvnM-dA" version="24.0.7" type="github">
  <diagram name="Page-1" id="JrUIfgVRSp0UM8ETx353">
    <mxGraphModel dx="1898" dy="619" grid="1" gridSize="10" guides="1" tooltips="1" connect="1" arrows="1" fold="1" page="1" pageScale="1" pageWidth="827" pageHeight="1169" math="0" shadow="0">
      <root>
        <mxCell id="0" />
        <mxCell id="1" parent="0" />
        <mxCell id="n7JFr-5hj81nrRRgK0mp-4" value="sign-up" style="ellipse;whiteSpace=wrap;html=1;" parent="1" vertex="1">
          <mxGeometry x="110" y="170" width="140" height="50" as="geometry" />
        </mxCell>
        <mxCell id="n7JFr-5hj81nrRRgK0mp-5" value="list" style="ellipse;whiteSpace=wrap;html=1;" parent="1" vertex="1">
          <mxGeometry x="370" y="170" width="140" height="50" as="geometry" />
        </mxCell>
        <mxCell id="n7JFr-5hj81nrRRgK0mp-7" value="detail" style="ellipse;whiteSpace=wrap;html=1;" parent="1" vertex="1">
          <mxGeometry x="370" y="230" width="140" height="50" as="geometry" />
        </mxCell>
        <mxCell id="n7JFr-5hj81nrRRgK0mp-8" value="reservation" style="ellipse;whiteSpace=wrap;html=1;" parent="1" vertex="1">
          <mxGeometry x="370" y="280" width="140" height="50" as="geometry" />
        </mxCell>
        <mxCell id="n7JFr-5hj81nrRRgK0mp-9" value="customer" style="ellipse;whiteSpace=wrap;html=1;" parent="1" vertex="1">
          <mxGeometry x="110" y="250" width="140" height="50" as="geometry" />
        </mxCell>
        <mxCell id="n7JFr-5hj81nrRRgK0mp-24" value="" style="endArrow=none;html=1;rounded=0;exitX=0.5;exitY=0.5;exitDx=0;exitDy=0;exitPerimeter=0;entryX=0;entryY=0.5;entryDx=0;entryDy=0;" parent="1" target="n7JFr-5hj81nrRRgK0mp-4" edge="1">
          <mxGeometry width="50" height="50" relative="1" as="geometry">
            <mxPoint x="25" y="310" as="sourcePoint" />
            <mxPoint x="140" y="210" as="targetPoint" />
          </mxGeometry>
        </mxCell>
        <mxCell id="n7JFr-5hj81nrRRgK0mp-25" value="" style="endArrow=none;html=1;rounded=0;exitX=0.5;exitY=0.5;exitDx=0;exitDy=0;exitPerimeter=0;" parent="1" edge="1">
          <mxGeometry width="50" height="50" relative="1" as="geometry">
            <mxPoint x="25" y="310" as="sourcePoint" />
            <mxPoint x="110" y="280" as="targetPoint" />
          </mxGeometry>
        </mxCell>
        <mxCell id="VkAto_T7RoTl3e5We4uX-1" value="" style="endArrow=none;html=1;rounded=0;entryX=-0.014;entryY=0.66;entryDx=0;entryDy=0;entryPerimeter=0;" edge="1" parent="1" target="n7JFr-5hj81nrRRgK0mp-5">
          <mxGeometry width="50" height="50" relative="1" as="geometry">
            <mxPoint x="250" y="280" as="sourcePoint" />
            <mxPoint x="300" y="230" as="targetPoint" />
          </mxGeometry>
        </mxCell>
        <mxCell id="VkAto_T7RoTl3e5We4uX-2" value="" style="endArrow=none;html=1;rounded=0;entryX=0;entryY=0.5;entryDx=0;entryDy=0;" edge="1" parent="1" target="n7JFr-5hj81nrRRgK0mp-7">
          <mxGeometry width="50" height="50" relative="1" as="geometry">
            <mxPoint x="250" y="280" as="sourcePoint" />
            <mxPoint x="378" y="213" as="targetPoint" />
          </mxGeometry>
        </mxCell>
        <mxCell id="VkAto_T7RoTl3e5We4uX-3" value="" style="endArrow=none;html=1;rounded=0;entryX=0.007;entryY=0.38;entryDx=0;entryDy=0;exitX=0.964;exitY=0.68;exitDx=0;exitDy=0;exitPerimeter=0;entryPerimeter=0;" edge="1" parent="1" source="n7JFr-5hj81nrRRgK0mp-9" target="n7JFr-5hj81nrRRgK0mp-8">
          <mxGeometry width="50" height="50" relative="1" as="geometry">
            <mxPoint x="260" y="290" as="sourcePoint" />
            <mxPoint x="380" y="265" as="targetPoint" />
          </mxGeometry>
        </mxCell>
        <mxCell id="VkAto_T7RoTl3e5We4uX-4" value="start" style="ellipse;whiteSpace=wrap;html=1;" vertex="1" parent="1">
          <mxGeometry x="630" y="195" width="140" height="50" as="geometry" />
        </mxCell>
        <mxCell id="VkAto_T7RoTl3e5We4uX-5" value="review" style="ellipse;whiteSpace=wrap;html=1;" vertex="1" parent="1">
          <mxGeometry x="630" y="255" width="140" height="50" as="geometry" />
        </mxCell>
        <mxCell id="VkAto_T7RoTl3e5We4uX-6" value="pay" style="ellipse;whiteSpace=wrap;html=1;" vertex="1" parent="1">
          <mxGeometry x="630" y="305" width="140" height="50" as="geometry" />
        </mxCell>
        <mxCell id="VkAto_T7RoTl3e5We4uX-7" value="" style="endArrow=none;html=1;rounded=0;entryX=-0.014;entryY=0.66;entryDx=0;entryDy=0;entryPerimeter=0;" edge="1" parent="1" target="VkAto_T7RoTl3e5We4uX-4">
          <mxGeometry width="50" height="50" relative="1" as="geometry">
            <mxPoint x="510" y="305" as="sourcePoint" />
            <mxPoint x="560" y="255" as="targetPoint" />
          </mxGeometry>
        </mxCell>
        <mxCell id="VkAto_T7RoTl3e5We4uX-8" value="" style="endArrow=none;html=1;rounded=0;entryX=0;entryY=0.5;entryDx=0;entryDy=0;" edge="1" parent="1" target="VkAto_T7RoTl3e5We4uX-5">
          <mxGeometry width="50" height="50" relative="1" as="geometry">
            <mxPoint x="510" y="305" as="sourcePoint" />
            <mxPoint x="638" y="238" as="targetPoint" />
          </mxGeometry>
        </mxCell>
        <mxCell id="VkAto_T7RoTl3e5We4uX-9" value="" style="endArrow=none;html=1;rounded=0;entryX=0;entryY=0.64;entryDx=0;entryDy=0;entryPerimeter=0;" edge="1" parent="1" source="n7JFr-5hj81nrRRgK0mp-8" target="VkAto_T7RoTl3e5We4uX-6">
          <mxGeometry width="50" height="50" relative="1" as="geometry">
            <mxPoint x="530" y="480" as="sourcePoint" />
            <mxPoint x="580" y="430" as="targetPoint" />
          </mxGeometry>
        </mxCell>
        <mxCell id="VkAto_T7RoTl3e5We4uX-11" value="home" style="ellipse;whiteSpace=wrap;html=1;" vertex="1" parent="1">
          <mxGeometry x="110" y="60" width="140" height="50" as="geometry" />
        </mxCell>
        <mxCell id="VkAto_T7RoTl3e5We4uX-12" value="login" style="ellipse;whiteSpace=wrap;html=1;" vertex="1" parent="1">
          <mxGeometry x="110" y="110" width="140" height="50" as="geometry" />
        </mxCell>
        <mxCell id="VkAto_T7RoTl3e5We4uX-14" value="list" style="ellipse;whiteSpace=wrap;html=1;" vertex="1" parent="1">
          <mxGeometry x="370" y="355" width="140" height="50" as="geometry" />
        </mxCell>
        <mxCell id="VkAto_T7RoTl3e5We4uX-15" value="detail" style="ellipse;whiteSpace=wrap;html=1;" vertex="1" parent="1">
          <mxGeometry x="370" y="415" width="140" height="50" as="geometry" />
        </mxCell>
        <mxCell id="VkAto_T7RoTl3e5We4uX-17" value="manager" style="ellipse;whiteSpace=wrap;html=1;" vertex="1" parent="1">
          <mxGeometry x="110" y="330" width="140" height="50" as="geometry" />
        </mxCell>
        <mxCell id="VkAto_T7RoTl3e5We4uX-18" value="" style="endArrow=none;html=1;rounded=0;entryX=-0.014;entryY=0.66;entryDx=0;entryDy=0;entryPerimeter=0;exitX=1;exitY=0.5;exitDx=0;exitDy=0;" edge="1" parent="1" target="VkAto_T7RoTl3e5We4uX-14" source="VkAto_T7RoTl3e5We4uX-17">
          <mxGeometry width="50" height="50" relative="1" as="geometry">
            <mxPoint x="250" y="465" as="sourcePoint" />
            <mxPoint x="300" y="415" as="targetPoint" />
          </mxGeometry>
        </mxCell>
        <mxCell id="VkAto_T7RoTl3e5We4uX-19" value="" style="endArrow=none;html=1;rounded=0;entryX=0;entryY=0.5;entryDx=0;entryDy=0;" edge="1" parent="1" target="VkAto_T7RoTl3e5We4uX-15" source="VkAto_T7RoTl3e5We4uX-17">
          <mxGeometry width="50" height="50" relative="1" as="geometry">
            <mxPoint x="250" y="465" as="sourcePoint" />
            <mxPoint x="378" y="398" as="targetPoint" />
          </mxGeometry>
        </mxCell>
        <mxCell id="VkAto_T7RoTl3e5We4uX-21" value="" style="endArrow=none;html=1;rounded=0;entryX=0;entryY=0.5;entryDx=0;entryDy=0;" edge="1" parent="1" target="VkAto_T7RoTl3e5We4uX-17">
          <mxGeometry width="50" height="50" relative="1" as="geometry">
            <mxPoint x="30" y="310" as="sourcePoint" />
            <mxPoint x="80" y="330" as="targetPoint" />
          </mxGeometry>
        </mxCell>
        <mxCell id="VkAto_T7RoTl3e5We4uX-23" value="&lt;div&gt;Racine&lt;/div&gt;" style="text;html=1;align=center;verticalAlign=middle;whiteSpace=wrap;rounded=0;" vertex="1" parent="1">
          <mxGeometry x="-30" y="290" width="60" height="30" as="geometry" />
        </mxCell>
        <mxCell id="VkAto_T7RoTl3e5We4uX-24" value="" style="endArrow=none;html=1;rounded=0;entryX=0;entryY=0.5;entryDx=0;entryDy=0;exitX=1;exitY=0.75;exitDx=0;exitDy=0;" edge="1" parent="1" source="VkAto_T7RoTl3e5We4uX-23" target="VkAto_T7RoTl3e5We4uX-12">
          <mxGeometry width="50" height="50" relative="1" as="geometry">
            <mxPoint x="10" y="230" as="sourcePoint" />
            <mxPoint x="60" y="180" as="targetPoint" />
          </mxGeometry>
        </mxCell>
        <mxCell id="VkAto_T7RoTl3e5We4uX-25" value="" style="endArrow=none;html=1;rounded=0;" edge="1" parent="1">
          <mxGeometry width="50" height="50" relative="1" as="geometry">
            <mxPoint x="30" y="310" as="sourcePoint" />
            <mxPoint x="110" y="90" as="targetPoint" />
          </mxGeometry>
        </mxCell>
      </root>
    </mxGraphModel>
  </diagram>
</mxfile>
